<?xml version="1.0" encoding="iso-8859-1"?>
<!-- Uploaded to: SVG Repo, www.svgrepo.com, Generator: SVG Repo Mixer Tools -->
<!DOCTYPE svg PUBLIC "-//W3C//DTD SVG 1.1//EN" "http://www.w3.org/Graphics/SVG/1.1/DTD/svg11.dtd">
<svg fill="#000000" version="1.1" id="Capa_1" xmlns="http://www.w3.org/2000/svg" xmlns:xlink="http://www.w3.org/1999/xlink" 
	 width="800px" height="800px" viewBox="0 0 528.919 528.919"
	 xml:space="preserve">
<g>
	<g>
		<path d="M518.946,196.148c-5.836-19.461-14.184-38.143-24.813-55.521l-39.156,23.954c8.571,14.012,15.301,29.067,20.004,44.75
			L518.946,196.148z"/>
		<path d="M492.208,391.4l-38.785-24.547c-8.771,13.855-19.309,26.566-31.319,37.781l31.322,33.553
			C468.297,424.302,481.345,408.562,492.208,391.4z"/>
		<path d="M524.559,309.989l-45.062-8.745c-3.125,16.096-8.326,31.744-15.463,46.512l41.329,19.97
			C514.222,349.396,520.682,329.971,524.559,309.989z"/>
		<path d="M362.513,442.524l17.057,42.613c18.847-7.546,36.698-17.516,53.061-29.64l-27.326-36.882
			C392.106,428.399,377.706,436.44,362.513,442.524z"/>
		<path d="M528.919,264.472c0-14.085-1.242-28.207-3.696-41.968l-45.188,8.06c1.979,11.108,2.986,22.516,2.983,33.908
			c0,5.046-0.195,10.135-0.587,15.123l45.759,3.577C528.674,276.996,528.919,270.705,528.919,264.472z"/>
		<path d="M341.818,449.461c-15.753,4.29-32.1,6.545-48.59,6.708l0.446,45.896c20.41-0.199,40.665-2.996,60.203-8.317
			L341.818,449.461z"/>
		<path d="M70.846,324.068c3.21,3.926,8.409,3.926,11.619,0l69.162-84.621c3.21-3.926,1.698-7.108-3.372-7.108h-45.903
			c0.364-2.148,0.716-4.299,1.151-6.423c0.006-0.028,0.012-0.059,0.018-0.086c0.566-2.769,1.218-5.514,1.903-8.253
			c9.345-37.026,29.48-69.805,56.864-94.771c0.159-0.144,0.321-0.288,0.48-0.435c1.661-1.505,3.351-2.98,5.064-4.428
			c5.141-4.339,10.511-8.415,16.093-12.204c0.128-0.085,0.254-0.177,0.382-0.263c27.929-18.859,61.068-30.551,96.763-32.439
			c0.468-0.024,0.936-0.034,1.404-0.055c2.473-0.11,4.951-0.172,7.433-0.19c0.719-0.006,1.438-0.021,2.157-0.019
			c2.567,0.009,5.126,0.077,7.675,0.184c0.908,0.04,1.812,0.095,2.717,0.147c1.998,0.113,3.99,0.26,5.982,0.435
			c0.771,0.067,1.546,0.123,2.316,0.199c2.564,0.257,5.116,0.572,7.656,0.93c0.808,0.113,1.612,0.242,2.417,0.367
			c8.256,1.27,16.381,3.072,24.337,5.389c1.202,0.352,2.398,0.729,3.592,1.102c1.261,0.395,2.516,0.805,3.768,1.227
			c2.074,0.697,4.131,1.435,6.178,2.203c1.169,0.438,2.341,0.869,3.501,1.331c1.478,0.587,2.943,1.208,4.406,1.833
			c0.826,0.352,1.649,0.716,2.47,1.08c2.968,1.319,5.905,2.711,8.807,4.18c0.33,0.168,0.667,0.325,0.997,0.496
			c1.444,0.744,2.873,1.518,4.3,2.298c0.826,0.453,1.646,0.912,2.463,1.377c1.315,0.744,2.632,1.487,3.929,2.265l0.004-0.006
			c6.624,3.969,13.017,8.375,19.17,13.164c2.394,1.861,4.743,3.782,7.057,5.762c0.637,0.544,1.285,1.071,1.916,1.625
			c2.387,2.096,4.722,4.266,7.02,6.49c6.371,6.172,12.329,12.766,17.794,19.768l36.182-28.241
			c-6.436-8.244-13.415-16.047-20.863-23.37c-0.059-0.061-0.11-0.125-0.172-0.184c-0.284-0.278-0.584-0.535-0.868-0.813
			c-2.137-2.075-4.309-4.098-6.509-6.083c-0.649-0.584-1.295-1.175-1.949-1.753c-2.405-2.124-4.848-4.192-7.323-6.209
			c-0.89-0.722-1.799-1.423-2.698-2.133c-0.931-0.734-1.846-1.484-2.788-2.203l-0.03,0.04c-7.203-5.521-14.688-10.575-22.405-15.199
			l0.024-0.043c-1.775-1.062-3.574-2.083-5.374-3.1c-0.722-0.407-1.443-0.814-2.169-1.212c-6.087-3.348-12.305-6.414-18.647-9.204
			c-0.561-0.248-1.12-0.493-1.684-0.734c-6.193-2.668-12.497-5.067-18.904-7.191c-1.059-0.352-2.117-0.701-3.18-1.037
			c-1.826-0.578-3.659-1.15-5.502-1.686c-0.106-0.031-0.214-0.067-0.321-0.098l-0.003,0.009c-8.656-2.494-17.476-4.474-26.423-5.97
			l0.009-0.052c-0.908-0.153-1.829-0.272-2.741-0.416c-1.166-0.181-2.329-0.364-3.501-0.529c-3.069-0.432-6.147-0.811-9.244-1.123
			c-1.001-0.101-2.004-0.171-3.008-0.26c-2.448-0.214-4.905-0.395-7.369-0.536c-1.092-0.061-2.182-0.131-3.276-0.181
			c-3.198-0.138-6.405-0.22-9.624-0.232c-0.291,0-0.578-0.021-0.869-0.021c-0.545,0-1.077,0.037-1.622,0.04
			c-3.146,0.021-6.278,0.095-9.394,0.238c-0.554,0.025-1.108,0.037-1.662,0.067c-2.8,0.147-5.597,0.331-8.378,0.576l0.006,0.064
			c-9.082,0.802-18.032,2.057-26.793,3.855l-0.003-0.015c-3.724,0.762-7.417,1.643-11.099,2.583
			c-0.223,0.059-0.45,0.113-0.676,0.171c-15.78,4.079-31.126,9.762-45.75,17.008l0.052,0.107
			c-8.106,4.027-15.94,8.513-23.492,13.406l-0.086-0.134c-17.05,11.028-32.659,24.226-46.396,39.232l0.095,0.089
			c-6.089,6.649-11.775,13.666-17.087,20.973l-0.128-0.092c-11.968,16.49-21.769,34.45-29.128,53.382l0.11,0.043
			c-3.265,8.375-6.108,16.955-8.418,25.759l-0.046-0.012c-1.025,3.917-1.919,7.871-2.742,11.839
			c-0.071,0.336-0.144,0.67-0.211,1.006c-0.725,3.571-1.371,7.17-1.934,10.796c-0.076,0.496-0.141,0.998-0.214,1.493
			c-0.147,1-0.297,1.999-0.435,3.002H5.057c-5.071,0-6.579,3.183-3.373,7.108L70.846,324.068z"/>
	</g>
</g>
</svg>